name analog
datacolumns 19
datarows 29
range 0.2625 0.2765
endheader
time	ground_force_vx	ground_force_vy	ground_force_vz	ground_force_px	ground_force_py	ground_force_pz	l_ground_force_vx	l_ground_force_vy	l_ground_force_vz	l_ground_force_px	l_ground_force_py	l_ground_force_pz	ground_torque_x	ground_torque_y	ground_torque_z	l_ground_torque_x	l_ground_torque_y	l_ground_torque_z
0.2625	-0.0	-0.0	-0.0	-0.0	-0.0	-0.0	16.84093475341797	-20.309473037719727	-772.396728515625	-0.0	-0.0	-0.0	-0.0	-0.0	-0.0	228389.140625	-17349.86328125	1703.905029296875
0.263	-0.0	-0.0	-0.0	-0.0	-0.0	-0.0	18.237178802490234	-18.105945587158203	-774.5648803710938	-0.0	-0.0	-0.0	-0.0	-0.0	-0.0	229297.375	-17443.685546875	1864.7520751953125
0.2635	-0.0	-0.0	-0.0	-0.0	-0.0	-0.0	18.148542404174805	-16.353822708129883	-774.5646362304688	-0.0	-0.0	-0.0	-0.0	-0.0	-0.0	229808.5	-17705.697265625	2001.0504150390625
0.264	-0.0	-0.0	-0.0	-0.0	-0.0	-0.0	17.476024627685547	-14.657394409179688	-775.1165771484375	-0.0	-0.0	-0.0	-0.0	-0.0	-0.0	229770.296875	-17359.861328125	1854.0782470703125
0.2645	-0.0	-0.0	-0.0	-0.0	-0.0	-0.0	16.426130294799805	-12.644571304321287	-774.1420288085938	-0.0	-0.0	-0.0	-0.0	-0.0	-0.0	230023.859375	-17531.927734375	1858.7271728515625
0.265	-0.0	-0.0	-0.0	-0.0	-0.0	-0.0	14.903411865234377	-10.683242797851562	-773.443603515625	-0.0	-0.0	-0.0	-0.0	-0.0	-0.0	230324.84375	-17466.099609375	1698.736083984375
0.2655	-0.0	-0.0	-0.0	-0.0	-0.0	-0.0	14.511680603027344	-8.670393943786621	-774.1279907226562	-0.0	-0.0	-0.0	-0.0	-0.0	-0.0	230425.890625	-17349.37890625	1764.4642333984375
0.266	-0.0	-0.0	-0.0	-0.0	-0.0	-0.0	14.01630401611328	-7.025705814361572	-773.3575439453125	-0.0	-0.0	-0.0	-0.0	-0.0	-0.0	230942.265625	-17483.408203125	1858.54345703125
0.2665	-0.0	-0.0	-0.0	-0.0	-0.0	-0.0	13.147575378417969	-5.405921459197998	-772.7448120117188	-0.0	-0.0	-0.0	-0.0	-0.0	-0.0	231077.671875	-17541.41796875	1811.3380126953125
0.267	-0.0	-0.0	-0.0	-0.0	-0.0	-0.0	13.09251308441162	-3.974475860595703	-772.6724853515625	-0.0	-0.0	-0.0	-0.0	-0.0	-0.0	231594.796875	-17428.087890625	2042.8541259765625
0.2675	-0.0	-0.0	-0.0	-0.0	-0.0	-0.0	12.468732833862305	-2.0861001014709477	-774.1524658203125	-0.0	-0.0	-0.0	-0.0	-0.0	-0.0	232017.28125	-17474.177734375	1948.74853515625
0.268	-0.0	-0.0	-0.0	-0.0	-0.0	-0.0	11.85069179534912	-0.6000553369522095	-770.1669921875	-0.0	-0.0	-0.0	-0.0	-0.0	-0.0	232050.671875	-17567.462890625	1959.9908447265625
0.2685	-0.0	-0.0	-0.0	-0.0	-0.0	-0.0	11.068123817443848	0.727206826210022	-770.5678100585938	-0.0	-0.0	-0.0	-0.0	-0.0	-0.0	232095.984375	-17263.158203125	1828.9298095703125
0.269	-0.0	-0.0	-0.0	-0.0	-0.0	-0.0	9.953811645507812	2.3144876956939697	-769.950927734375	-0.0	-0.0	-0.0	-0.0	-0.0	-0.0	232403.90625	-17263.544921875	1668.8531494140625
0.2695	-0.0	-0.0	-0.0	-0.0	-0.0	-0.0	9.189573287963867	3.992570400238037	-771.2674560546875	-0.0	-0.0	-0.0	-0.0	-0.0	-0.0	232537.125	-16968.390625	1413.9141845703125
0.27	-0.0	-0.0	-0.0	-0.0	-0.0	-0.0	8.161392211914062	5.1407151222229	-771.1331176757812	-0.0	-0.0	-0.0	-0.0	-0.0	-0.0	233015.125	-16734.4453125	1253.6595458984375
0.2705	-0.0	-0.0	-0.0	-0.0	-0.0	-0.0	7.877160549163818	5.82745361328125	-773.0146484375	-0.0	-0.0	-0.0	-0.0	-0.0	-0.0	233652.046875	-16737.83984375	998.6970825195312
0.271	-0.0	-0.0	-0.0	-0.0	-0.0	-0.0	7.4500412940979	6.198856830596924	-773.5908813476562	-0.0	-0.0	-0.0	-0.0	-0.0	-0.0	234766.328125	-16808.755859375	1122.0181884765625
0.2715	-0.0	-0.0	-0.0	-0.0	-0.0	-0.0	7.290844917297363	6.287327766418457	-776.0989379882812	-0.0	-0.0	-0.0	-0.0	-0.0	-0.0	235332.734375	-16723.212890625	890.671875
0.272	-0.0	-0.0	-0.0	-0.0	-0.0	-0.0	6.9734416007995605	5.810026168823242	-778.608154296875	-0.0	-0.0	-0.0	-0.0	-0.0	-0.0	235994.09375	-16938.275390625	854.654296875
0.2725	-0.0	-0.0	-0.0	-0.0	-0.0	-0.0	7.008152008056641	5.280261039733887	-778.54638671875	-0.0	-0.0	-0.0	-0.0	-0.0	-0.0	236774.421875	-16982.740234375	771.58056640625
0.273	-0.0	-0.0	-0.0	-0.0	-0.0	-0.0	6.439053058624268	4.8567328453063965	-780.5618286132812	-0.0	-0.0	-0.0	-0.0	-0.0	-0.0	237103.453125	-17037.220703125	604.7687377929688
0.2735	-0.0	-0.0	-0.0	-0.0	-0.0	-0.0	6.333484172821045	3.938837766647339	-779.16552734375	-0.0	-0.0	-0.0	-0.0	-0.0	-0.0	236651.6875	-16834.14453125	385.4123229980469
0.274	-0.0	-0.0	-0.0	-0.0	-0.0	-0.0	5.535808563232422	3.091259002685547	-775.7445678710938	-0.0	-0.0	-0.0	-0.0	-0.0	-0.0	236194.515625	-16982.837890625	218.3460693359375
0.2745	-0.0	-0.0	-0.0	-0.0	-0.0	-0.0	5.304362773895264	2.985183000564575	-772.2550048828125	-0.0	-0.0	-0.0	-0.0	-0.0	-0.0	235590.015625	-16659.65234375	63.7077522277832
0.275	-0.0	-0.0	-0.0	-0.0	-0.0	-0.0	4.435803413391113	1.925360083580017	-771.2058715820312	-0.0	-0.0	-0.0	-0.0	-0.0	-0.0	235172.515625	-16533.62890625	-126.91333770751952
0.2755	-0.0	-0.0	-0.0	-0.0	-0.0	-0.0	4.595066547393799	1.3602044582366943	-768.9013061523438	-0.0	-0.0	-0.0	-0.0	-0.0	-0.0	234238.359375	-16455.51171875	-233.7411651611328
0.276	-0.0	-0.0	-0.0	-0.0	-0.0	-0.0	4.364558696746826	0.9362340569496156	-764.7118530273438	-0.0	-0.0	-0.0	-0.0	-0.0	-0.0	233743.875	-16411.076171875	-411.9546813964844
0.2765	-0.0	-0.0	-0.0	-0.0	-0.0	-0.0	3.495353937149048	0.7948951721191406	-764.2232055664062	-0.0	-0.0	-0.0	-0.0	-0.0	-0.0	233183.671875	-16377.9755859375	-685.4183349609375
